<svg xmlns="http://www.w3.org/2000/svg" version="1.1" xmlns:xlink="http://www.w3.org/1999/xlink" xmlns:svgjs="http://svgjs.dev/svgjs" width="1000" height="257" viewBox="0 0 1000 257"><g transform="matrix(1,0,0,1,-0.6060606060606233,-0.19775013122551854)"><svg viewBox="0 0 396 102" data-background-color="#fbcd08" preserveAspectRatio="xMidYMid meet" height="257" width="1000" xmlns="http://www.w3.org/2000/svg" xmlns:xlink="http://www.w3.org/1999/xlink"><defs></defs><g id="tight-bounds" transform="matrix(1,0,0,1,0.2400000000000091,0.07848448787939333)"><svg viewBox="0 0 395.52 92.53135685564078" height="92.53135685564078" width="395.52"><g><svg viewBox="0 0 527.2476918910481 123.34886814746035" height="92.53135685564078" width="395.52"><g transform="matrix(1,0,0,1,131.72769189104812,2.1718445187565507)"><svg viewBox="0 0 395.52 119.00517910994725" height="119.00517910994725" width="395.52"><g><svg viewBox="0 0 395.52 119.00517910994725" height="119.00517910994725" width="395.52"><g><rect width="395.52" height="100.86935262774068" fill="none" stroke-width="8.962371322224001" stroke="#555555" data-fill-palette-color="none" data-stroke-palette-color="tertiary"></rect><rect width="395.52" height="32.72059250439173" y="100.86935262774068" fill="#555555" data-fill-palette-color="tertiary"></rect></g><g><svg viewBox="0 0 395.52 99.86935262774068" height="99.86935262774068" width="395.52"><g transform="matrix(1,0,0,1,23.461705032,23.461705032000005)"><svg width="348.596589936" viewBox="3.2200000286102295 -35.51045227050781 237 36.00045394897461" height="52.94594256374067" data-palette-color="#555555"><path d="M35.03-6.35L35.03 0 12.13 0Q11.25 0 10.24-0.21 9.23-0.42 8.24-0.85 7.25-1.29 6.35-1.99 5.44-2.69 4.75-3.67 4.05-4.66 3.64-5.97 3.22-7.28 3.22-8.91L3.22-8.91 3.22-26.1Q3.22-26.98 3.43-27.99 3.64-29 4.08-29.99 4.52-30.98 5.22-31.88 5.93-32.79 6.92-33.48 7.91-34.18 9.2-34.59 10.5-35.01 12.13-35.01L12.13-35.01 35.03-35.01 35.03-28.66 12.13-28.66Q10.89-28.66 10.23-28 9.57-27.34 9.57-26.05L9.57-26.05 9.57-8.91Q9.57-7.69 10.24-7.02 10.91-6.35 12.13-6.35L12.13-6.35 35.03-6.35ZM69.82-20.7L69.82-14.31 49.78-14.31 49.78-20.7 69.82-20.7ZM72.68-6.35L72.68 0 49.78 0Q48.46 0 46.9-0.46 45.33-0.93 44-1.99 42.67-3.05 41.78-4.75 40.89-6.45 40.89-8.91L40.89-8.91 40.89-31.81Q40.89-32.47 41.14-33.06 41.38-33.64 41.81-34.08 42.23-34.52 42.82-34.77 43.41-35.01 44.09-35.01L44.09-35.01 72.68-35.01 72.68-28.66 47.24-28.66 47.24-8.91Q47.24-7.67 47.9-7.01 48.56-6.35 49.83-6.35L49.83-6.35 72.68-6.35ZM119.55-32.3L119.55 0 113.15 0 113.15-20.85 101.9-1.05Q101.48-0.29 100.74 0.1 100 0.49 99.14 0.49L99.14 0.49Q98.31 0.49 97.59 0.1 96.87-0.29 96.45-1.05L96.45-1.05 85.15-20.85 85.15 0 78.8 0 78.8-32.3Q78.8-33.4 79.45-34.25 80.1-35.11 81.15-35.4L81.15-35.4Q81.66-35.52 82.17-35.49 82.69-35.45 83.16-35.27 83.64-35.08 84.03-34.75 84.42-34.42 84.69-33.96L84.69-33.96 99.14-8.84 113.59-33.96Q114.16-34.89 115.14-35.28 116.13-35.67 117.21-35.4L117.21-35.4Q118.23-35.11 118.89-34.25 119.55-33.4 119.55-32.3L119.55-32.3ZM161.81-23.24L161.81-20.36Q161.81-18.19 161.27-16.48 160.73-14.77 159.82-13.46 158.9-12.16 157.71-11.23 156.51-10.3 155.2-9.72 153.9-9.13 152.57-8.86 151.24-8.59 150.07-8.59L150.07-8.59 135.71-8.59 135.71-14.94 150.07-14.94Q151.29-15.04 152.28-15.44 153.26-15.84 153.97-16.53 154.68-17.21 155.07-18.18 155.46-19.14 155.46-20.36L155.46-20.36 155.46-23.24Q155.34-24.44 154.95-25.44 154.56-26.44 153.89-27.15 153.22-27.86 152.26-28.26 151.31-28.66 150.07-28.66L150.07-28.66 135.76-28.66Q134.49-28.66 133.83-28 133.17-27.34 133.17-26.1L133.17-26.1 133.17 0 126.82 0 126.82-26.1Q126.82-28.54 127.71-30.25 128.61-31.96 129.94-33.01 131.27-34.06 132.83-34.53 134.39-35.01 135.71-35.01L135.71-35.01 150.07-35.01Q152.21-35.01 153.92-34.46 155.63-33.91 156.94-33 158.24-32.08 159.16-30.88 160.08-29.69 160.67-28.38 161.27-27.08 161.54-25.74 161.81-24.41 161.81-23.24L161.81-23.24ZM202.21-27.29L202.21-23.24Q202.21-21.07 201.67-19.36 201.14-17.65 200.22-16.35 199.31-15.04 198.11-14.11 196.91-13.18 195.61-12.59 194.3-11.99 192.97-11.72 191.64-11.45 190.47-11.45L190.47-11.45 203.73 0 193.91 0 180.68-11.45 176.11-11.45 176.11-17.8 190.47-17.8Q191.66-17.9 192.65-18.3 193.64-18.7 194.36-19.38 195.08-20.07 195.47-21.03 195.86-22 195.86-23.24L195.86-23.24 195.86-27.25Q195.86-27.78 195.73-28.06 195.6-28.34 195.39-28.48 195.18-28.61 194.95-28.64 194.72-28.66 194.52-28.66L194.52-28.66 173.57-28.66 173.57 0 167.23 0 167.23-31.81Q167.23-32.47 167.47-33.06 167.71-33.64 168.14-34.08 168.57-34.52 169.16-34.77 169.74-35.01 170.42-35.01L170.42-35.01 194.52-35.01Q196.65-35.01 198.11-34.24 199.57-33.47 200.49-32.31 201.41-31.15 201.81-29.81 202.21-28.47 202.21-27.29L202.21-27.29ZM237.37-20.7L237.37-14.31 217.32-14.31 217.32-20.7 237.37-20.7ZM240.22-6.35L240.22 0 217.32 0Q216 0 214.44-0.46 212.88-0.93 211.55-1.99 210.22-3.05 209.33-4.75 208.43-6.45 208.43-8.91L208.43-8.91 208.43-31.81Q208.43-32.47 208.68-33.06 208.92-33.64 209.35-34.08 209.78-34.52 210.36-34.77 210.95-35.01 211.63-35.01L211.63-35.01 240.22-35.01 240.22-28.66 214.78-28.66 214.78-8.91Q214.78-7.67 215.44-7.01 216.1-6.35 217.37-6.35L217.37-6.35 240.22-6.35Z" opacity="1" transform="matrix(1,0,0,1,0,0)" fill="#555555" class="undefined-text-0" data-fill-palette-color="primary" id="text-0"></path></svg></g></svg></g><g transform="matrix(1,0,0,1,75.54432,99.86935262774068)"><svg viewBox="0 0 244.43135999999998 19.13582648220656" height="19.13582648220656" width="244.43135999999998"><rect width="244.43135999999998" height="19.13582648220656" x="0" y="0" opacity="1" fill="#555555" data-fill-palette-color="tertiary"></rect><g transform="matrix(1,0,0,1,20,3.2)"><svg width="204.43135999999998" viewBox="2.9000000953674316 -35.150001525878906 574.5999755859375 35.80000305175781" height="12.735826482206559" data-palette-color="#ffffff"><path d="M16.65-35.1L16.65-35.1Q18.9-35.1 20.5-35 22.1-34.9 23.45-34.68 24.8-34.45 26.25-34.05L26.25-34.05 25.75-30.3Q24.25-30.45 22.95-30.53 21.65-30.6 20.18-30.65 18.7-30.7 16.65-30.7L16.65-30.7Q13.45-30.7 11.6-29.45 9.75-28.2 8.97-25.28 8.2-22.35 8.2-17.25L8.2-17.25Q8.2-12.15 8.97-9.22 9.75-6.3 11.6-5.05 13.45-3.8 16.65-3.8L16.65-3.8Q19.9-3.8 22.13-3.93 24.35-4.05 26.45-4.35L26.45-4.35 26.95-0.6Q24.75 0.05 22.43 0.33 20.1 0.6 16.65 0.6L16.65 0.6Q11.65 0.6 8.63-1.13 5.6-2.85 4.25-6.75 2.9-10.65 2.9-17.25L2.9-17.25Q2.9-23.85 4.25-27.75 5.6-31.65 8.63-33.38 11.65-35.1 16.65-35.1ZM41.8-34.5L46.9-34.5Q47.55-34.5 48.05-34.13 48.55-33.75 48.75-33.15L48.75-33.15 59.65 0 54.45 0 45.85-27.75Q45.65-28.5 45.45-29.25 45.25-30 45.05-30.65L45.05-30.65 43.65-30.65Q43.45-30 43.25-29.25 43.05-28.5 42.8-27.75L42.8-27.75 34.2 0 29.05 0 39.95-33.15Q40.15-33.75 40.65-34.13 41.15-34.5 41.8-34.5L41.8-34.5ZM35.5-14.65L53.1-14.65 53.1-10.5 35.5-10.5 35.5-14.65ZM76.75-34.95L76.75-34.95Q80.55-34.95 83.17-34.05 85.8-33.15 87.4-31.13 89-29.1 89.72-25.68 90.45-22.25 90.45-17.25L90.45-17.25Q90.45-12.25 89.72-8.83 89-5.4 87.4-3.38 85.8-1.35 83.17-0.45 80.55 0.45 76.75 0.45L76.75 0.45Q73.15 0.45 70.07 0.33 67 0.2 64.25 0L64.25 0 66.34-4Q68.45-3.9 71.02-3.83 73.59-3.75 76.75-3.75L76.75-3.75Q79.95-3.75 81.8-5 83.65-6.25 84.42-9.18 85.2-12.1 85.2-17.25L85.2-17.25Q85.2-22.4 84.42-25.33 83.65-28.25 81.8-29.53 79.95-30.8 76.75-30.8L76.75-30.8Q73.65-30.8 71.2-30.75 68.75-30.7 66.39-30.65L66.39-30.65 64.25-34.5Q67-34.7 70.07-34.83 73.15-34.95 76.75-34.95ZM64.25-34.5L69.25-34.5 69.25 0 64.25 0 64.25-34.5ZM106.34-34.5L111.44-34.5Q112.09-34.5 112.59-34.13 113.09-33.75 113.29-33.15L113.29-33.15 124.19 0 118.99 0 110.39-27.75Q110.19-28.5 109.99-29.25 109.79-30 109.59-30.65L109.59-30.65 108.19-30.65Q107.99-30 107.79-29.25 107.59-28.5 107.34-27.75L107.34-27.75 98.74 0 93.59 0 104.49-33.15Q104.69-33.75 105.19-34.13 105.69-34.5 106.34-34.5L106.34-34.5ZM100.04-14.65L117.64-14.65 117.64-10.5 100.04-10.5 100.04-14.65ZM138.69-35.1L138.69-35.1Q141.19-35.05 143.87-34.85 146.54-34.65 149.19-34.05L149.19-34.05 148.84-30.5Q146.69-30.6 144.02-30.65 141.34-30.7 138.84-30.7L138.84-30.7Q137.09-30.7 135.84-30.6 134.59-30.5 133.79-30.05 132.99-29.6 132.62-28.6 132.24-27.6 132.24-25.85L132.24-25.85Q132.24-23.2 133.24-22.13 134.24-21.05 136.49-20.5L136.49-20.5 143.44-18.65Q147.44-17.65 148.94-15.28 150.44-12.9 150.44-8.9L150.44-8.9Q150.44-5.9 149.77-4.05 149.09-2.2 147.67-1.2 146.24-0.2 143.99 0.2 141.74 0.6 138.64 0.6L138.64 0.6Q136.94 0.6 134.14 0.45 131.34 0.3 127.69-0.4L127.69-0.4 128.04-4.05Q130.99-3.95 132.87-3.88 134.74-3.8 136.09-3.8 137.44-3.8 138.79-3.8L138.79-3.8Q141.29-3.8 142.74-4.17 144.19-4.55 144.79-5.68 145.39-6.8 145.39-8.95L145.39-8.95Q145.39-10.8 144.97-11.85 144.54-12.9 143.62-13.43 142.69-13.95 141.24-14.3L141.24-14.3 134.09-16.25Q130.34-17.3 128.79-19.65 127.24-22 127.24-25.9L127.24-25.9Q127.24-28.9 127.92-30.75 128.59-32.6 129.99-33.52 131.39-34.45 133.54-34.77 135.69-35.1 138.69-35.1ZM164.99-34.5L169.99-34.5 169.99 0 164.99 0 164.99-34.5ZM154.04-34.5L180.99-34.5 180.99-30.2 154.04-30.2 154.04-34.5ZM198.49-34.95L198.49-34.95Q202.59-34.95 205.11-34.08 207.64-33.2 208.79-31.03 209.94-28.85 209.94-24.95L209.94-24.95Q209.94-22.2 209.29-20.35 208.64-18.5 207.26-17.45 205.89-16.4 203.54-16.1L203.54-16.1 203.54-15.85Q204.39-15.65 205.24-15.05 206.09-14.45 206.84-13.43 207.59-12.4 207.94-10.85L207.94-10.85 211.19 0 205.89 0 202.89-10.75Q202.29-12.65 201.24-13.45 200.19-14.25 198.49-14.25L198.49-14.25Q195.34-14.25 193.09-14.28 190.84-14.3 189.31-14.35 187.79-14.4 186.84-14.4L186.84-14.4 186.99-18.4 198.39-18.4Q200.84-18.45 202.24-18.98 203.64-19.5 204.26-20.85 204.89-22.2 204.89-24.65L204.89-24.65Q204.89-27.1 204.26-28.43 203.64-29.75 202.24-30.28 200.84-30.8 198.39-30.8L198.39-30.8Q194.19-30.8 191.14-30.75 188.09-30.7 187.04-30.7L187.04-30.7 186.34-34.5Q188.24-34.7 189.94-34.8 191.64-34.9 193.66-34.93 195.69-34.95 198.49-34.95ZM186.34-34.5L191.29-34.5 191.29 0 186.34 0 186.34-34.5ZM230.08-35.15L230.08-35.15Q233.88-35.15 236.56-34.25 239.23-33.35 240.83-31.3 242.43-29.25 243.16-25.8 243.88-22.35 243.88-17.25L243.88-17.25Q243.88-12.2 243.16-8.72 242.43-5.25 240.83-3.2 239.23-1.15 236.56-0.25 233.88 0.65 230.08 0.65L230.08 0.65Q226.28 0.65 223.61-0.25 220.93-1.15 219.31-3.2 217.68-5.25 216.93-8.72 216.18-12.2 216.18-17.25L216.18-17.25Q216.18-22.35 216.93-25.8 217.68-29.25 219.31-31.3 220.93-33.35 223.61-34.25 226.28-35.15 230.08-35.15ZM230.08-30.8L230.08-30.8Q226.83-30.8 224.93-29.55 223.03-28.3 222.26-25.38 221.48-22.45 221.48-17.25L221.48-17.25Q221.48-12.1 222.26-9.15 223.03-6.2 224.93-4.95 226.83-3.7 230.08-3.7L230.08-3.7Q233.33-3.7 235.21-4.95 237.08-6.2 237.88-9.15 238.68-12.1 238.68-17.25L238.68-17.25Q238.68-22.45 237.88-25.38 237.08-28.3 235.21-29.55 233.33-30.8 230.08-30.8ZM274.68-34.95L274.68-34.95Q278.48-34.95 281.1-34.05 283.73-33.15 285.33-31.13 286.93-29.1 287.65-25.68 288.38-22.25 288.38-17.25L288.38-17.25Q288.38-12.25 287.65-8.83 286.93-5.4 285.33-3.38 283.73-1.35 281.1-0.45 278.48 0.45 274.68 0.45L274.68 0.45Q271.08 0.45 268 0.33 264.93 0.2 262.18 0L262.18 0 264.28-4Q266.38-3.9 268.95-3.83 271.53-3.75 274.68-3.75L274.68-3.75Q277.88-3.75 279.73-5 281.58-6.25 282.35-9.18 283.13-12.1 283.13-17.25L283.13-17.25Q283.13-22.4 282.35-25.33 281.58-28.25 279.73-29.53 277.88-30.8 274.68-30.8L274.68-30.8Q271.58-30.8 269.13-30.75 266.68-30.7 264.33-30.65L264.33-30.65 262.18-34.5Q264.93-34.7 268-34.83 271.08-34.95 274.68-34.95ZM262.18-34.5L267.18-34.5 267.18 0 262.18 0 262.18-34.5ZM302.03-34.55L302.03-34.55Q304.53-34.55 307.13-34.55 309.73-34.55 312.25-34.48 314.78-34.4 317.08-34.25L317.08-34.25 316.88-30.4 303.13-30.4Q301.63-30.4 300.93-29.65 300.23-28.9 300.23-27.25L300.23-27.25 300.23-7.25Q300.23-5.6 300.93-4.83 301.63-4.05 303.13-4.05L303.13-4.05 316.88-4.05 317.08-0.25Q314.78-0.1 312.25-0.05 309.73 0 307.13 0.03 304.53 0.05 302.03 0.05L302.03 0.05Q298.93 0.05 297.1-1.63 295.28-3.3 295.23-6.1L295.23-6.1 295.23-28.4Q295.28-31.25 297.1-32.9 298.93-34.55 302.03-34.55ZM296.13-16.25L296.13-20.1 314.93-20.1 314.93-16.25 296.13-16.25ZM341.27-34.55L341.27-34.55Q343.77-34.55 346.37-34.55 348.97-34.55 351.5-34.48 354.02-34.4 356.32-34.25L356.32-34.25 356.12-30.4 342.37-30.4Q340.87-30.4 340.17-29.65 339.47-28.9 339.47-27.25L339.47-27.25 339.47-7.25Q339.47-5.6 340.17-4.83 340.87-4.05 342.37-4.05L342.37-4.05 356.12-4.05 356.32-0.25Q354.02-0.1 351.5-0.05 348.97 0 346.37 0.03 343.77 0.05 341.27 0.05L341.27 0.05Q338.17 0.05 336.35-1.63 334.52-3.3 334.47-6.1L334.47-6.1 334.47-28.4Q334.52-31.25 336.35-32.9 338.17-34.55 341.27-34.55ZM335.37-16.25L335.37-20.1 354.17-20.1 354.17-16.25 335.37-16.25ZM390.62-34.5L396.02-34.5Q397.97-34.5 398.02-32.45L398.02-32.45 399.42 0 394.52 0 393.27-30.45 392.27-30.45 384.97-5.7Q384.57-4.05 382.87-4.05L382.87-4.05 378.77-4.05Q377.02-4.05 376.57-5.7L376.57-5.7 369.27-30.45 368.27-30.45 367.12 0 362.22 0 363.57-32.45Q363.67-34.5 365.57-34.5L365.57-34.5 370.97-34.5Q372.57-34.5 373.07-32.85L373.07-32.85 379.12-12.45Q379.52-11.3 379.77-10.15 380.02-9 380.37-7.75L380.37-7.75 381.22-7.75Q381.57-9 381.84-10.15 382.12-11.3 382.47-12.55L382.47-12.55 388.52-32.85Q388.92-34.5 390.62-34.5L390.62-34.5ZM419.22-34.95L419.22-34.95Q423.47-34.95 425.97-34 428.47-33.05 429.54-30.7 430.62-28.35 430.62-24.05L430.62-24.05Q430.62-19.8 429.56-17.43 428.52-15.05 426.14-14.13 423.77-13.2 419.81-13.2L419.81-13.2Q417.67-13.2 415.69-13.3 413.72-13.4 412.06-13.6 410.42-13.8 409.24-14.03 408.06-14.25 407.62-14.45L407.62-14.45 407.77-17.35Q410.47-17.35 413.37-17.35 416.27-17.35 419.17-17.35L419.17-17.35Q421.56-17.4 422.97-17.95 424.37-18.5 424.97-19.95 425.56-21.4 425.56-24.05L425.56-24.05Q425.56-26.75 424.97-28.2 424.37-29.65 422.97-30.23 421.56-30.8 419.17-30.8L419.17-30.8Q414.97-30.8 411.92-30.75 408.87-30.7 407.81-30.6L407.81-30.6 407.12-34.5Q409.02-34.7 410.72-34.8 412.42-34.9 414.42-34.93 416.42-34.95 419.22-34.95ZM407.12-34.5L412.12-34.5 412.12 0 407.12 0 407.12-34.5ZM449.01-34.95L449.01-34.95Q453.11-34.95 455.64-34.08 458.16-33.2 459.31-31.03 460.46-28.85 460.46-24.95L460.46-24.95Q460.46-22.2 459.81-20.35 459.16-18.5 457.79-17.45 456.41-16.4 454.06-16.1L454.06-16.1 454.06-15.85Q454.91-15.65 455.76-15.05 456.61-14.45 457.36-13.43 458.11-12.4 458.46-10.85L458.46-10.85 461.71 0 456.41 0 453.41-10.75Q452.81-12.65 451.76-13.45 450.71-14.25 449.01-14.25L449.01-14.25Q445.86-14.25 443.61-14.28 441.36-14.3 439.84-14.35 438.31-14.4 437.36-14.4L437.36-14.4 437.51-18.4 448.91-18.4Q451.36-18.45 452.76-18.98 454.16-19.5 454.79-20.85 455.41-22.2 455.41-24.65L455.41-24.65Q455.41-27.1 454.79-28.43 454.16-29.75 452.76-30.28 451.36-30.8 448.91-30.8L448.91-30.8Q444.71-30.8 441.66-30.75 438.61-30.7 437.56-30.7L437.56-30.7 436.86-34.5Q438.76-34.7 440.46-34.8 442.16-34.9 444.19-34.93 446.21-34.95 449.01-34.95ZM436.86-34.5L441.81-34.5 441.81 0 436.86 0 436.86-34.5ZM474.51-34.55L474.51-34.55Q477.01-34.55 479.61-34.55 482.21-34.55 484.74-34.48 487.26-34.4 489.56-34.25L489.56-34.25 489.36-30.4 475.61-30.4Q474.11-30.4 473.41-29.65 472.71-28.9 472.71-27.25L472.71-27.25 472.71-7.25Q472.71-5.6 473.41-4.83 474.11-4.05 475.61-4.05L475.61-4.05 489.36-4.05 489.56-0.25Q487.26-0.1 484.74-0.05 482.21 0 479.61 0.03 477.01 0.05 474.51 0.05L474.51 0.05Q471.41 0.05 469.58-1.63 467.76-3.3 467.71-6.1L467.71-6.1 467.71-28.4Q467.76-31.25 469.58-32.9 471.41-34.55 474.51-34.55ZM468.61-16.25L468.61-20.1 487.41-20.1 487.41-16.25 468.61-16.25ZM506.06-35.1L506.06-35.1Q508.56-35.05 511.23-34.85 513.91-34.65 516.56-34.05L516.56-34.05 516.21-30.5Q514.06-30.6 511.38-30.65 508.71-30.7 506.21-30.7L506.21-30.7Q504.46-30.7 503.21-30.6 501.96-30.5 501.16-30.05 500.36-29.6 499.98-28.6 499.61-27.6 499.61-25.85L499.61-25.85Q499.61-23.2 500.61-22.13 501.61-21.05 503.86-20.5L503.86-20.5 510.81-18.65Q514.81-17.65 516.31-15.28 517.81-12.9 517.81-8.9L517.81-8.9Q517.81-5.9 517.13-4.05 516.46-2.2 515.03-1.2 513.61-0.2 511.36 0.2 509.11 0.6 506.01 0.6L506.01 0.6Q504.31 0.6 501.51 0.45 498.71 0.3 495.06-0.4L495.06-0.4 495.41-4.05Q498.36-3.95 500.23-3.88 502.11-3.8 503.46-3.8 504.81-3.8 506.16-3.8L506.16-3.8Q508.66-3.8 510.11-4.17 511.56-4.55 512.16-5.68 512.76-6.8 512.76-8.95L512.76-8.95Q512.76-10.8 512.33-11.85 511.91-12.9 510.98-13.43 510.06-13.95 508.61-14.3L508.61-14.3 501.46-16.25Q497.71-17.3 496.16-19.65 494.61-22 494.61-25.9L494.61-25.9Q494.61-28.9 495.28-30.75 495.96-32.6 497.36-33.52 498.76-34.45 500.91-34.77 503.06-35.1 506.06-35.1ZM533.4-34.5L538.5-34.5Q539.15-34.5 539.65-34.13 540.15-33.75 540.35-33.15L540.35-33.15 551.25 0 546.05 0 537.45-27.75Q537.25-28.5 537.05-29.25 536.85-30 536.65-30.65L536.65-30.65 535.25-30.65Q535.05-30 534.85-29.25 534.65-28.5 534.4-27.75L534.4-27.75 525.8 0 520.65 0 531.55-33.15Q531.75-33.75 532.25-34.13 532.75-34.5 533.4-34.5L533.4-34.5ZM527.1-14.65L544.7-14.65 544.7-10.5 527.1-10.5 527.1-14.65ZM565.75-35.1L565.75-35.1Q568.25-35.05 570.93-34.85 573.6-34.65 576.25-34.05L576.25-34.05 575.9-30.5Q573.75-30.6 571.08-30.65 568.4-30.7 565.9-30.7L565.9-30.7Q564.15-30.7 562.9-30.6 561.65-30.5 560.85-30.05 560.05-29.6 559.68-28.6 559.3-27.6 559.3-25.85L559.3-25.85Q559.3-23.2 560.3-22.13 561.3-21.05 563.55-20.5L563.55-20.5 570.5-18.65Q574.5-17.65 576-15.28 577.5-12.9 577.5-8.9L577.5-8.9Q577.5-5.9 576.83-4.05 576.15-2.2 574.73-1.2 573.3-0.2 571.05 0.2 568.8 0.6 565.7 0.6L565.7 0.6Q564 0.6 561.2 0.45 558.4 0.3 554.75-0.4L554.75-0.4 555.1-4.05Q558.05-3.95 559.93-3.88 561.8-3.8 563.15-3.8 564.5-3.8 565.85-3.8L565.85-3.8Q568.35-3.8 569.8-4.17 571.25-4.55 571.85-5.68 572.45-6.8 572.45-8.95L572.45-8.95Q572.45-10.8 572.03-11.85 571.6-12.9 570.68-13.43 569.75-13.95 568.3-14.3L568.3-14.3 561.15-16.25Q557.4-17.3 555.85-19.65 554.3-22 554.3-25.9L554.3-25.9Q554.3-28.9 554.98-30.75 555.65-32.6 557.05-33.52 558.45-34.45 560.6-34.77 562.75-35.1 565.75-35.1Z" opacity="1" transform="matrix(1,0,0,1,0,0)" fill="#ffffff" class="undefined-text-1" data-fill-palette-color="quaternary" id="text-1"></path></svg></g></svg></g></svg></g></svg></g><g><svg viewBox="0 0 119.99683937504811 123.34886814746035" height="123.34886814746035" width="119.99683937504811"><g><svg xmlns="http://www.w3.org/2000/svg" xmlns:xlink="http://www.w3.org/1999/xlink" version="1.1" x="0" y="0" viewBox="9 6.60699987411499 84.5199966430664 86.8810043334961" enable-background="new 0 0 99.21 99.21" xml:space="preserve" height="123.34886814746035" width="119.99683937504811" class="icon-icon-0" data-fill-palette-color="accent" id="icon-0"><path d="M23.706 41.28c7.597 1.779 17.713 2.866 28.828 2.866 17.174 0 31.972-2.592 38.769-6.329l2.217-14.813c-7.598 2.574-20.597 4.271-35.363 4.271-23.43 0-42.423-4.272-42.423-9.542 0-5.271 18.993-9.543 42.423-9.543 10.436 0 19.985 0.849 27.375 2.254C77.71 8.111 65.489 6.607 51.742 6.607 28.137 6.607 9 11.036 9 16.501c0 0.134 0.021 0.267 0.043 0.4H9.039l2.959 19.773c1.459 1.119 3.61 2.157 6.315 3.082-3.398 1.329-5.356 2.877-5.356 4.532 0 0.121 0.019 0.24 0.04 0.36h-0.004l2.672 17.827c1.561 1.194 4 2.384 7.109 3.463-4.18 1.34-6.65 2.984-6.65 4.763 0 0.11 0.018 0.22 0.036 0.33h-0.004L18.6 85.218c4.674 3.578 17.887 8.27 33.47 8.27 14.18 0 25.871-3.191 31.481-6.271l2.359-13.794c-6.273 2.122-20.173 6.16-32.365 6.16-19.345 0-31.862-3.522-31.862-7.866 0-1.61 2.161-3.108 5.861-4.355 6.696 1.72 15.312 2.907 24.73 2.907 15.511 0 28.876-3.392 35.012-6.762l2.004-14.938c-6.861 2.321-18.602 5.435-31.937 5.435-21.161 0-38.315-3.852-38.315-8.604C19.039 43.906 20.731 42.503 23.706 41.28z" fill="#414141" data-fill-palette-color="accent"></path></svg></g></svg></g></svg></g></svg><rect width="395.52" height="92.53135685564078" fill="none" stroke="none" visibility="hidden"></rect></g></svg></g></svg>